<svg width="38" height="36" viewBox="0 0 38 36" fill="none" xmlns="http://www.w3.org/2000/svg">
<path d="M12.6501 1.304C13.8661 1.304 14.8741 1.448 15.6741 1.736C16.4741 1.992 17.1301 2.328 17.6421 2.744C18.0581 3.064 18.3941 3.416 18.6501 3.8C18.9061 4.184 19.0981 4.568 19.2261 4.952C19.3541 5.336 19.4181 5.704 19.4181 6.056C19.4181 6.856 19.1301 7.48 18.5541 7.928C18.0101 8.376 17.4021 8.6 16.7301 8.6C16.0901 8.6 15.5141 8.392 15.0021 7.976C14.4901 7.56 14.2341 6.968 14.2341 6.2C14.2341 5.496 14.4741 4.904 14.9541 4.424C15.4341 3.912 16.0421 3.624 16.7781 3.56C16.6501 3.144 16.2501 2.792 15.5781 2.504C14.9381 2.184 14.1221 2.024 13.1301 2.024C11.4981 2.024 10.1541 2.52 9.09806 3.512C8.07406 4.472 7.56206 5.88 7.56206 7.736C7.56206 8.632 7.72206 9.544 8.04206 10.472C8.39406 11.4 9.05006 12.312 10.0101 13.208C10.5541 13.112 11.1141 13.048 11.6901 13.016C12.2661 12.952 12.6981 12.92 12.9861 12.92C13.5621 12.92 14.0261 13.016 14.3781 13.208C14.7301 13.4 14.9061 13.672 14.9061 14.024C14.9061 14.312 14.7781 14.536 14.5221 14.696C14.2981 14.856 13.9781 14.936 13.5621 14.936C12.9541 14.936 12.3141 14.808 11.6421 14.552C10.9701 14.264 10.4421 14.04 10.0581 13.88C8.20206 14.424 6.69806 15.32 5.54606 16.568C4.39406 17.784 3.81806 19.512 3.81806 21.752C3.81806 23.96 4.39406 25.832 5.54606 27.368C6.69806 28.904 8.23406 30.088 10.1541 30.92C12.1061 31.72 14.2821 32.12 16.6821 32.12C18.3781 32.12 19.9781 31.928 21.4821 31.544C23.0181 31.128 24.3621 30.536 25.5141 29.768C26.6981 29 27.6261 28.088 28.2981 27.032C28.9701 25.944 29.3061 24.712 29.3061 23.336C29.3061 22.728 29.1781 21.96 28.9221 21.032C28.6661 20.072 28.1381 19.144 27.3381 18.248C26.5381 17.32 25.3061 16.6 23.6421 16.088L24.2181 15.608C26.5541 16.312 28.2181 17.448 29.2101 19.016C30.2021 20.552 30.6981 22.28 30.6981 24.2C30.6981 26.12 30.1221 27.96 28.9701 29.72C27.8181 31.48 26.1541 32.92 23.9781 34.04C21.8021 35.128 19.1621 35.672 16.0581 35.672C13.9781 35.672 11.9941 35.4 10.1061 34.856C8.25006 34.312 6.60206 33.528 5.16206 32.504C3.72206 31.448 2.58606 30.184 1.75406 28.712C0.922063 27.24 0.506063 25.576 0.506063 23.72C0.506063 21.992 0.842063 20.52 1.51406 19.304C2.18606 18.056 3.01806 17.032 4.01006 16.232C5.00206 15.432 5.99406 14.824 6.98606 14.408C7.97806 13.96 8.77806 13.656 9.38606 13.496C8.33006 13.016 7.43406 12.456 6.69806 11.816C5.99406 11.144 5.45006 10.424 5.06606 9.656C4.71406 8.856 4.53806 8.072 4.53806 7.304C4.53806 6.536 4.71406 5.8 5.06606 5.096C5.41806 4.36 5.93006 3.704 6.60206 3.128C7.27406 2.552 8.10606 2.104 9.09806 1.784C10.1221 1.464 11.3061 1.304 12.6501 1.304ZM30.1221 0.343997C32.1061 0.343997 33.7701 0.919997 35.1141 2.072C36.4581 3.192 37.1301 4.776 37.1301 6.824C37.1301 7.912 36.9221 8.888 36.5061 9.752C36.1221 10.584 35.5781 11.32 34.8741 11.96C34.2021 12.6 33.4341 13.128 32.5701 13.544C31.8341 13.896 30.8581 14.28 29.6421 14.696C28.4581 15.112 27.1781 15.528 25.8021 15.944C24.4581 16.36 23.1621 16.776 21.9141 17.192C20.6981 17.576 19.7061 17.912 18.9381 18.2C17.7541 18.648 16.7461 19.208 15.9141 19.88C15.1141 20.52 14.7141 21.352 14.7141 22.376C14.7141 23.208 14.9541 23.912 15.4341 24.488C15.9141 25.064 16.4901 25.496 17.1621 25.784C17.8661 26.072 18.5221 26.216 19.1301 26.216C19.4181 26.216 19.7701 26.184 20.1861 26.12C20.6341 26.024 21.0341 25.896 21.3861 25.736C21.7381 25.576 21.9461 25.384 22.0101 25.16C21.4981 25.064 20.9861 24.84 20.4741 24.488C19.9941 24.104 19.7541 23.512 19.7541 22.712C19.7541 21.944 20.0101 21.336 20.5221 20.888C21.0341 20.44 21.6581 20.216 22.3941 20.216C23.1621 20.216 23.7701 20.456 24.2181 20.936C24.6981 21.416 24.9381 22.04 24.9381 22.808C24.9381 23.704 24.6341 24.472 24.0261 25.112C23.4501 25.72 22.7141 26.184 21.8181 26.504C20.9541 26.792 20.0901 26.936 19.2261 26.936C18.3301 26.936 17.4181 26.744 16.4901 26.36C15.5621 25.976 14.7941 25.384 14.1861 24.584C13.5781 23.752 13.2741 22.664 13.2741 21.32C13.2741 20.2 13.5141 19.208 13.9941 18.344C14.5061 17.48 15.2581 16.712 16.2501 16.04C17.2421 15.368 18.4581 14.792 19.8981 14.312C20.8581 13.992 22.0261 13.64 23.4021 13.256C24.7781 12.872 26.1861 12.456 27.6261 12.008C29.0981 11.56 30.4261 11.064 31.6101 10.52C33.2101 9.784 34.2981 9.032 34.8741 8.264C35.4501 7.496 35.7381 6.712 35.7381 5.912C35.7381 4.984 35.4821 4.168 34.9701 3.464C34.4581 2.728 33.7701 2.152 32.9061 1.736C32.0741 1.288 31.1621 1.064 30.1701 1.064C29.7861 1.064 29.4661 1.096 29.2101 1.16C28.9541 1.224 28.7941 1.336 28.7301 1.496C29.1781 1.72 29.5141 2.04 29.7381 2.456C29.9621 2.872 30.0741 3.288 30.0741 3.704C30.0741 4.376 29.8021 4.936 29.2581 5.384C28.7461 5.832 28.1221 6.056 27.3861 6.056C26.7781 6.056 26.2021 5.864 25.6581 5.48C25.1141 5.064 24.8421 4.456 24.8421 3.656C24.8421 2.824 25.1141 2.168 25.6581 1.688C26.2341 1.208 26.9221 0.871998 27.7221 0.679998C28.5541 0.455997 29.3541 0.343997 30.1221 0.343997Z" fill="#B48C72"/>
</svg>
